<?xml version="1.0" encoding="utf-8"?>
<!-- Generator: Adobe Illustrator 22.0.1, SVG Export Plug-In . SVG Version: 6.00 Build 0)  -->
<svg version="1.1" id="Layer_1" xmlns="http://www.w3.org/2000/svg" xmlns:xlink="http://www.w3.org/1999/xlink" x="0px" y="0px"
	 viewBox="0 0 230.7 63.6" style="enable-background:new 0 0 230.7 63.6;" xml:space="preserve">
<style type="text/css">
	.st0{clip-path:url(#SVGID_2_);fill:url(#SVGID_3_);}
	.st1{clip-path:url(#SVGID_5_);fill:url(#SVGID_6_);}
	.st2{clip-path:url(#SVGID_8_);fill:#E74A56;}
	.st3{clip-path:url(#SVGID_10_);fill:url(#SVGID_11_);}
	.st4{clip-path:url(#SVGID_13_);fill:url(#SVGID_14_);}
	.st5{clip-path:url(#SVGID_16_);fill:#E74A56;}
	.st6{fill:#F9B020;}
	.st7{fill:#FFFFFF;}
</style>
<g>
	<defs>
		<rect id="SVGID_1_" x="27.5" y="37.6" width="11.4" height="11.4"/>
	</defs>
	<clipPath id="SVGID_2_">
		<use xlink:href="#SVGID_1_"  style="overflow:visible;"/>
	</clipPath>
	
		<linearGradient id="SVGID_3_" gradientUnits="userSpaceOnUse" x1="-309.4643" y1="275.9952" x2="-308.6012" y2="275.9952" gradientTransform="matrix(0 13.2542 -13.2542 0 3691.3467 4139.3193)">
		<stop  offset="0" style="stop-color:#E74A56"/>
		<stop  offset="1" style="stop-color:#F9B020"/>
	</linearGradient>
	<rect x="27.5" y="37.6" class="st0" width="11.4" height="11.4"/>
</g>
<g>
	<defs>
		<rect id="SVGID_4_" x="15.4" y="25.5" width="11.4" height="11.4"/>
	</defs>
	<clipPath id="SVGID_5_">
		<use xlink:href="#SVGID_4_"  style="overflow:visible;"/>
	</clipPath>
	
		<linearGradient id="SVGID_6_" gradientUnits="userSpaceOnUse" x1="-296.3493" y1="274.6556" x2="-295.4862" y2="274.6556" gradientTransform="matrix(-13.2542 0 0 -13.2542 -3901.0203 3671.572)">
		<stop  offset="0" style="stop-color:#E74A56"/>
		<stop  offset="1" style="stop-color:#F9B020"/>
	</linearGradient>
	<rect x="15.4" y="25.5" class="st1" width="11.4" height="11.4"/>
</g>
<g>
	<defs>
		<polygon id="SVGID_7_" points="39,37 27.5,37 27.5,25.5 		"/>
	</defs>
	<use xlink:href="#SVGID_7_"  style="overflow:visible;fill:#E74A56;"/>
	<clipPath id="SVGID_8_">
		<use xlink:href="#SVGID_7_"  style="overflow:visible;"/>
	</clipPath>
	<rect x="27.5" y="25.5" class="st2" width="11.4" height="11.4"/>
</g>
<g>
	<defs>
		<rect id="SVGID_9_" x="3.3" y="13.4" width="11.4" height="35.7"/>
	</defs>
	<clipPath id="SVGID_10_">
		<use xlink:href="#SVGID_9_"  style="overflow:visible;"/>
	</clipPath>
	
		<linearGradient id="SVGID_11_" gradientUnits="userSpaceOnUse" x1="-301.543" y1="265.8824" x2="-300.68" y2="265.8824" gradientTransform="matrix(0 -41.3234 41.3234 0 -10978.1709 -12411.708)">
		<stop  offset="0" style="stop-color:#E74A56"/>
		<stop  offset="1" style="stop-color:#F9B020"/>
	</linearGradient>
	<rect x="3.3" y="13.4" class="st3" width="11.4" height="35.7"/>
</g>
<g>
	<defs>
		<rect id="SVGID_12_" x="15.4" y="49.7" width="11.4" height="11.4"/>
	</defs>
	<clipPath id="SVGID_13_">
		<use xlink:href="#SVGID_12_"  style="overflow:visible;"/>
	</clipPath>
	<linearGradient id="SVGID_14_" gradientUnits="userSpaceOnUse" x1="15.4047" y1="55.4529" x2="26.8441" y2="55.4529">
		<stop  offset="0" style="stop-color:#E74A56"/>
		<stop  offset="1" style="stop-color:#F9B020"/>
	</linearGradient>
	<rect x="15.4" y="49.7" class="st4" width="11.4" height="11.4"/>
</g>
<g>
	<defs>
		<polygon id="SVGID_15_" points="3.3,49.7 14.7,49.7 14.7,61.2 		"/>
	</defs>
	<use xlink:href="#SVGID_15_"  style="overflow:visible;fill:#E74A56;"/>
	<clipPath id="SVGID_16_">
		<use xlink:href="#SVGID_15_"  style="overflow:visible;"/>
	</clipPath>
	<rect x="3.3" y="49.7" class="st5" width="11.4" height="11.4"/>
</g>
<polygon class="st6" points="14.7,12.7 3.3,12.7 3.3,1.3 "/>
<polygon class="st6" points="27.5,61.2 27.5,49.7 39,49.7 "/>
<g>
	<path class="st7" d="M218.7,60.2c0,0.3,0.3,0.6,0.6,0.6h3.1c0.3,0,0.6-0.3,0.6-0.6V41.5h5.1c0.4,0,0.6-0.3,0.6-0.6v-2.7
		c0-0.3-0.3-0.6-0.6-0.6h-14.6c-0.4,0-0.6,0.3-0.6,0.6v2.7c0,0.3,0.3,0.6,0.6,0.6h5.1V60.2z M188.4,49.2c0,6.7,5.4,12,12,12
		c3,0,5.8-1,8.1-3.2c0.2-0.2,0.3-0.7,0-0.9l-2.1-2.1c-0.2-0.2-0.6-0.2-0.8,0c-1.4,1.1-3.1,1.9-5.1,1.9c-4.3,0-7.5-3.5-7.5-7.7
		c0-4.2,3.2-7.8,7.4-7.8c1.9,0,3.7,0.7,5.1,2c0.3,0.3,0.6,0.3,0.8,0l2-2.1c0.3-0.3,0.3-0.7,0-0.9c-2.3-2-4.7-3.1-8.1-3.1
		C193.8,37.2,188.4,42.5,188.4,49.2 M173.5,52.9l3.3-7.3h0.1l3.3,7.3H173.5z M166.4,60.8h2.9c0.5,0,0.8-0.3,1-0.7l1.6-3.6h10
		l1.6,3.6c0.2,0.5,0.5,0.7,1,0.7h2.9c0.5,0,0.8-0.4,0.6-0.9l-10.3-22.4c-0.1-0.2-0.2-0.4-0.6-0.4h-0.3c-0.3,0-0.5,0.2-0.6,0.4
		L165.8,60C165.6,60.4,165.9,60.8,166.4,60.8 M143.8,59.9c-0.3,0.4,0,0.9,0.6,0.9h3.6c0.3,0,0.5-0.2,0.6-0.3l4.7-7.6h0.1l4.8,7.6
		c0.1,0.1,0.3,0.3,0.6,0.3h3.6c0.6,0,0.8-0.5,0.6-0.9l-6.9-11l6.7-10.4c0.3-0.4,0-0.9-0.6-0.9h-3.9c-0.3,0-0.5,0.2-0.5,0.3l-4.3,7.1
		h0l-4.3-7.1c-0.1-0.1-0.3-0.3-0.5-0.3h-3.9c-0.6,0-0.8,0.5-0.6,0.9l6.7,10.4L143.8,59.9z M125.5,58.5V39.8h5c5.5,0,9.4,3.9,9.4,9.4
		c0,5.5-4,9.4-9.4,9.4H125.5z M122.9,60.2c0,0.3,0.3,0.6,0.6,0.6h7.5c6.4,0,11.7-5.2,11.7-11.7c0-6.4-5.3-11.6-11.7-11.6h-7.5
		c-0.3,0-0.6,0.3-0.6,0.6V60.2z M105.2,60.2c0,0.3,0.3,0.6,0.6,0.6h11.5c0.4,0,0.6-0.3,0.6-0.6v-1c0-0.3-0.3-0.6-0.6-0.6h-9.6V38.1
		c0-0.3-0.3-0.6-0.6-0.6h-1.3c-0.4,0-0.6,0.3-0.6,0.6V60.2z M95.2,60.2c0,0.3,0.3,0.6,0.6,0.6h1.3c0.3,0,0.6-0.3,0.6-0.6V38.1
		c0-0.3-0.3-0.6-0.6-0.6h-1.3c-0.3,0-0.6,0.3-0.6,0.6V60.2z M70.4,52.2c0,5.1,3.6,8.9,8.8,8.9c5.3,0,8.9-3.9,8.9-8.9V38.1
		c0-0.3-0.3-0.6-0.6-0.6h-1.3c-0.4,0-0.6,0.3-0.6,0.6v14c0,3.8-2.4,6.7-6.3,6.7c-3.9,0-6.3-3-6.3-6.8V38.1c0-0.3-0.3-0.6-0.6-0.6H71
		c-0.3,0-0.6,0.3-0.6,0.6V52.2z M52.3,58.6v-8.3h5.5c2.6,0,4.8,1.7,4.8,4.1c0,2.4-1.8,4.2-4.2,4.2H52.3z M52.4,48v-8.2h5.4
		c2.6,0,4,1.6,4,4c0,2.3-1.4,4.2-4,4.2H52.4z M49.9,60.2c0,0.3,0.3,0.6,0.6,0.6h7.6c4.3,0,7.3-2.7,7.3-6.4c0-3.1-2.2-4.7-4-5.4
		c1.6-0.9,3.3-2.8,3.3-5.3c0-3.5-2.8-6.1-6.8-6.1h-7.3c-0.4,0-0.6,0.3-0.6,0.6V60.2z"/>
</g>
</svg>
